<svg xmlns="http://www.w3.org/2000/svg" viewBox="0 0 500 500">
  <defs>
    <linearGradient gradientUnits="userSpaceOnUse" x1="248.843" y1="30.303" x2="248.843" y2="470.061" id="gradient-0" gradientTransform="matrix(1.631623, -0.008722, 0.004304, 0.804976, -163.324878, -136.802942)">
      <stop offset="0" style="stop-color: rgb(10, 227, 255);"></stop>
      <stop offset="1" style="stop-color: rgb(238, 252, 249);"></stop>
    </linearGradient>
  </defs>
  <path d="M 602.897 244.184 C 602.897 442.326 441.686 602.95 242.824 602.95 C 43.96 602.95 -117.25 442.326 -117.25 244.184 C -117.25 46.044 43.96 -114.58 242.824 -114.58 C 441.686 -114.58 602.897 46.044 602.897 244.184 Z" style="fill: url(#gradient-0);"></path>
  <path d="M 184.091 49.996 L 471.224 521.55 C 409.075 572.414 329.527 602.95 242.824 602.95 C 118.352 602.95 8.633 540.023 -56.039 444.355 L 184.091 49.996 Z" style="fill: rgb(130, 203, 102);"></path>
  <path d="M 394.226 130.608 L 564.28 406 C 504.913 522.849 383.257 602.95 242.824 602.95 C 198.398 602.95 155.849 594.933 116.559 580.273 L 394.226 130.608 Z" style="fill: rgb(96, 165, 70);"></path>
  <path d="M 242.824 602.95 C 76.407 602.95 -63.64 490.465 -104.91 337.64 L 590.558 337.64 C 549.287 490.465 409.24 602.95 242.824 602.95 Z" style="fill: rgb(182, 163, 122);"></path>
</svg>