<svg xmlns="http://www.w3.org/2000/svg" viewBox="0 0 500 500">
  <defs>
    <linearGradient gradientUnits="userSpaceOnUse" x1="248.843" y1="30.303" x2="248.843" y2="470.061" id="gradient-0" gradientTransform="matrix(0.999985, -0.005346, 0.002638, 0.493352, -0.076364, 16.683255)">
      <stop offset="0" style="stop-color: rgb(10, 227, 255);"></stop>
      <stop offset="1" style="stop-color: rgb(238, 252, 249);"></stop>
    </linearGradient>
  </defs>
  <path d="M 469.524 250.182 C 469.524 371.618 370.722 470.061 248.843 470.061 C 126.964 470.061 28.162 371.618 28.162 250.182 C 28.162 128.746 126.964 30.303 248.843 30.303 C 370.722 30.303 469.524 128.746 469.524 250.182 Z" style="fill: url(#gradient-0);"></path>
  <path d="M 212.847 131.168 L 388.824 420.173 C 350.735 451.347 301.982 470.061 248.843 470.061 C 172.557 470.061 105.313 431.494 65.677 372.862 Z" style="fill: rgb(130, 203, 102);"></path>
  <path d="M 341.634 180.574 L 445.856 349.355 C 409.472 420.969 334.911 470.061 248.843 470.061 C 221.615 470.061 195.538 465.148 171.458 456.163 Z" style="fill: rgb(96, 165, 70);"></path>
  <path d="M 248.843 470.061 C 146.85 470.061 61.018 401.122 35.724 307.459 L 461.962 307.459 C 436.668 401.122 350.836 470.061 248.843 470.061 Z" style="fill: rgb(182, 163, 122);"></path>
</svg>